# xmcd
#
# Track frame offsets:
#	150
#	15467
#	32416
#	60593
#	80432
#	101628
#	126515
#	141385
#	161421
#	175231
#
# Disc length: 2601 seconds
#
# Revision: 1
# Processed by: cddbd v1.4PL0 Copyright (c) Steve Scherf et al.
# Submitted via: audiograbber 1.81.02
#
DISCID=7d0a270a
DTITLE=Gibert Bécaud - Olympia 97 cd 2
DYEAR=1900
DGENRE=
TTITLE0=Dimanche à Orly
TTITLE1=Le bain de minuit
TTITLE2=L'indien
TTITLE3=L'indifference
TTITLE4=La solitude ca n'existe pas
TTITLE5=L'Olympia
TTITLE6=Je reviens te chercher
TTITLE7=Nathalie
TTITLE8=Et maintenant
TTITLE9=L'important c'est la rose
EXTD=
EXTT0=
EXTT1=
EXTT2=
EXTT3=
EXTT4=
EXTT5=
EXTT6=
EXTT7=
EXTT8=
EXTT9=
PLAYORDER=
